<svg width="59" height="56" viewBox="0 0 59 56" fill="none" xmlns="http://www.w3.org/2000/svg">
<path d="M49.946 9.69638C46.1855 8.05865 42.153 6.85205 37.9367 6.16098C37.86 6.14764 37.7833 6.18097 37.7437 6.24764C37.2251 7.12314 36.6506 8.2653 36.2484 9.16304C31.7135 8.51864 27.2019 8.51864 22.76 9.16304C22.3577 8.24535 21.7624 7.12314 21.2414 6.24764C21.2019 6.1832 21.1252 6.14987 21.0484 6.16098C16.8344 6.84984 12.8019 8.05645 9.03913 9.69638C9.00656 9.70971 8.97864 9.73195 8.96011 9.76082C1.31125 20.607 -0.784086 31.1866 0.243818 41.635C0.248469 41.6861 0.278701 41.735 0.320562 41.7661C5.36705 45.2837 10.2554 47.4192 15.0531 48.8346C15.1298 48.8569 15.2112 48.8302 15.2601 48.7702C16.3949 47.2992 17.4066 45.7482 18.274 44.1171C18.3251 44.0215 18.2763 43.9082 18.1717 43.8704C16.567 43.2927 15.0391 42.5883 13.5693 41.7883C13.4531 41.7239 13.4438 41.5661 13.5507 41.4905C13.86 41.2705 14.1694 41.0416 14.4647 40.8105C14.5182 40.7683 14.5926 40.7594 14.6554 40.7861C24.3112 44.9704 34.7646 44.9704 44.3064 40.7861C44.3692 40.7572 44.4437 40.7661 44.4995 40.8083C44.7949 41.0394 45.1042 41.2705 45.4158 41.4905C45.5227 41.5661 45.5158 41.7239 45.3995 41.7883C43.9297 42.6038 42.4018 43.2927 40.7948 43.8682C40.6902 43.906 40.6437 44.0215 40.6949 44.1171C41.5809 45.7459 42.5925 47.2969 43.7065 48.768C43.753 48.8302 43.8367 48.8569 43.9135 48.8346C48.7343 47.4192 53.6227 45.2837 58.6692 41.7661C58.7134 41.735 58.7413 41.6883 58.746 41.6372C59.9762 29.5577 56.6855 19.0649 50.0227 9.76303C50.0064 9.73195 49.9786 9.70971 49.946 9.69638ZM19.7159 35.273C16.8089 35.273 14.4135 32.7398 14.4135 29.6288C14.4135 26.5178 16.7624 23.9847 19.7159 23.9847C22.6926 23.9847 25.0647 26.5401 25.0182 29.6288C25.0182 32.7398 22.6693 35.273 19.7159 35.273ZM39.3204 35.273C36.4135 35.273 34.0182 32.7398 34.0182 29.6288C34.0182 26.5178 36.3669 23.9847 39.3204 23.9847C42.2972 23.9847 44.6692 26.5401 44.6228 29.6288C44.6228 32.7398 42.2972 35.273 39.3204 35.273Z" fill="black"/>
</svg>
