<svg width="48" height="40" viewBox="0 0 48 40" fill="none" xmlns="http://www.w3.org/2000/svg">
<path d="M40.634 3.27718C37.5747 1.76031 34.294 0.642757 30.8638 0.00268502C30.8013 -0.00966817 30.7389 0.0212031 30.7067 0.0829471C30.2848 0.893838 29.8175 1.95171 29.4902 2.7832C25.8008 2.18636 22.1304 2.18636 18.5166 2.7832C18.1893 1.93323 17.705 0.893838 17.2811 0.0829471C17.249 0.0232632 17.1866 -0.00760808 17.1241 0.00268502C13.6958 0.640711 10.4151 1.75827 7.35387 3.27718C7.32737 3.28952 7.30465 3.31012 7.28958 3.33686C1.06678 13.3826 -0.6379 23.1814 0.19836 32.8588C0.202144 32.9061 0.22674 32.9514 0.260796 32.9802C4.36642 36.2382 8.34341 38.2161 12.2466 39.5271C12.309 39.5477 12.3752 39.523 12.415 39.4674C13.3383 38.105 14.1613 36.6684 14.867 35.1577C14.9086 35.0692 14.8688 34.9642 14.7837 34.9292C13.4783 34.3941 12.2352 33.7417 11.0395 33.0008C10.9449 32.9411 10.9373 32.7949 11.0243 32.7249C11.2759 32.5212 11.5276 32.3092 11.7679 32.0952C11.8114 32.0561 11.872 32.0478 11.9231 32.0725C19.7786 35.948 28.2831 35.948 36.0459 32.0725C36.097 32.0458 36.1576 32.054 36.203 32.0931C36.4433 32.3072 36.6949 32.5212 36.9484 32.7249C37.0354 32.7949 37.0298 32.9411 36.9352 33.0008C35.7394 33.7561 34.4964 34.3941 33.189 34.9272C33.1039 34.9622 33.0661 35.0692 33.1077 35.1577C33.8285 36.6663 34.6515 38.1029 35.5578 39.4654C35.5957 39.523 35.6637 39.5477 35.7262 39.5271C39.6483 38.2161 43.6252 36.2382 47.7309 32.9802C47.7668 32.9514 47.7895 32.9082 47.7933 32.8608C48.7942 21.6728 46.117 11.9543 40.6964 3.33891C40.6832 3.31012 40.6605 3.28952 40.634 3.27718ZM16.04 26.9663C13.675 26.9663 11.7263 24.6201 11.7263 21.7386C11.7263 18.8572 13.6372 16.511 16.04 16.511C18.4617 16.511 20.3916 18.8778 20.3538 21.7386C20.3538 24.6201 18.4428 26.9663 16.04 26.9663ZM31.9895 26.9663C29.6245 26.9663 27.6758 24.6201 27.6758 21.7386C27.6758 18.8572 29.5867 16.511 31.9895 16.511C34.4113 16.511 36.3411 18.8778 36.3033 21.7386C36.3033 24.6201 34.4113 26.9663 31.9895 26.9663Z" fill="#470085"/>
</svg>
