<svg width="541" height="88" viewBox="0 0 541 88" fill="none" xmlns="http://www.w3.org/2000/svg">
<ellipse cx="48.3956" cy="44" rx="48.3956" ry="44" fill="#707FD9"/>
<rect width="56.6137" height="51.4717" transform="translate(20.0889 18.2642)" fill="#707FD9"/>
<path d="M31.8833 46.1447L41.3189 54.7233L64.9079 33.2767" stroke="white" stroke-width="6.2" stroke-linecap="round" stroke-linejoin="round"/>
<rect x="95.8779" y="41.5094" width="127.837" height="4.15094" fill="#707FD9"/>
<ellipse cx="272.111" cy="44" rx="48.3956" ry="44" fill="#707FD9"/>
<rect width="56.6137" height="51.4717" transform="translate(243.804 18.2642)" fill="#707FD9"/>
<path d="M255.599 46.1447L265.034 54.7233L288.623 33.2767" stroke="white" stroke-width="6.2" stroke-linecap="round" stroke-linejoin="round"/>
<rect x="319.593" y="41.5094" width="127.837" height="4.15094" fill="#707FD9"/>
<path d="M537.569 44C537.569 66.3813 517.52 85 492.174 85C466.827 85 446.778 66.3813 446.778 44C446.778 21.6187 466.827 3 492.174 3C517.52 3 537.569 21.6187 537.569 44Z" fill="#707FD9" stroke="#4F46E5" stroke-width="6"/>
<ellipse cx="492.174" cy="44" rx="16.4362" ry="14.9434" fill="#707FD9"/>
</svg>
